# xmcd
#
# Track frame offsets:
#  150
#  23048
#  38887
#  55609
#  75220
#  92039
#  109027
#  119501
#  132213
#  149041
#  165108
#  184415
#  197273
#  210786
#  231493
#  246977
#  263306
#  283743
#  299707
#  321884
#  336800
#
# Disc length: 4629 seconds
#
# Revision: 0
# Processed by: cddbd v1.5.2PL0 Copyright (c) Steve Scherf et al.
# Submitted via: AltoMP3_Maker 3.0
#
DISCID=28121315
DTITLE=Various Artist - Truckers, Kickers, Cowboy Angels, Vol. 7, disc 2 (1974-75)
DYEAR=1900
DGENRE=
TTITLE0=Souther-Hillman-Furay Band - Trouble in Paradise
TTITLE1=The Outlaws - Knoxville Girl
TTITLE2=Gene Clark - From a Silver Phial
TTITLE3=Muleskinner - Runways of the Moon
TTITLE4=Gram Parsons and Emmylou Harris - In My Hour of Darkness
TTITLE5=Flying Burrito Bros - Sweet Desert Childhood
TTITLE6=Commander Cody and Lost Planet Airmen - Southbound
TTITLE7=Kinky Friedman - Something's Wrong with the Beaver
TTITLE8=Barefoot Jerry - Slowin' Down
TTITLE9=Ozark Mountain Daredevils - E. E. Lawson
TTITLE10=Johnny Rivers - Wait a Minute
TTITLE11=Billy Swan - Lover Please
TTITLE12=Donnie Fritts - We Had It All
TTITLE13=Lost Gonzo Band - Railroad Man
TTITLE14=Jesse Winchester - Mississippi, You're on My Mind
TTITLE15=Sir Doug and Texas Tornados - Cowboy Peyton Place
TTITLE16=Guy Clark - Desperados Waiting for a Train
TTITLE17=Emmylou Harris - Boulder to Birmingham
TTITLE18=Wright Bros Overland Stage Company - Wild Wicked Woman of the West
TTITLE19=John Prine - Come Back to Us Barbara Lewis Hare Krishna Beauregard
TTITLE20=Willie Nelson - Blue Eyes Crying in the Rain
EXTD=
EXTT0=
EXTT1=
EXTT2=
EXTT3=
EXTT4=
EXTT5=
EXTT6=
EXTT7=
EXTT8=
EXTT9=
EXTT10=
EXTT11=
EXTT12=
EXTT13=
EXTT14=
EXTT15=
EXTT16=
EXTT17=
EXTT18=
EXTT19=
EXTT20=
PLAYORDER=
